<svg xmlns="http://www.w3.org/2000/svg" viewBox="0 0 1200 560" width="1200" height="560" role="img" aria-label="execmemory-ai hero">
<title>execmemory-ai hero</title>
<rect width="1200" height="560" fill="#f4f2ff"/>
<defs><linearGradient id="gh" x1="0" y1="0" x2="1" y2="1"><stop offset="0%" stop-color="#6166c7"/><stop offset="100%" stop-color="#8f73be"/></linearGradient></defs><rect x="96.00" y="150.00" width="88.00" height="72.00" rx="8.00" fill="#6166c7" opacity="0.59"/><rect x="196.00" y="150.00" width="88.00" height="72.00" rx="8.00" fill="#8f73be" opacity="0.52"/><rect x="296.00" y="150.00" width="88.00" height="72.00" rx="8.00" fill="#3b9dbb" opacity="0.59"/><rect x="396.00" y="150.00" width="88.00" height="72.00" rx="8.00" fill="#6166c7" opacity="0.95"/><rect x="496.00" y="150.00" width="88.00" height="72.00" rx="8.00" fill="#8f73be" opacity="0.92"/><rect x="596.00" y="150.00" width="88.00" height="72.00" rx="8.00" fill="#3b9dbb" opacity="0.81"/><rect x="696.00" y="150.00" width="88.00" height="72.00" rx="8.00" fill="#6166c7" opacity="0.83"/><rect x="796.00" y="150.00" width="88.00" height="72.00" rx="8.00" fill="#8f73be" opacity="0.87"/><rect x="896.00" y="150.00" width="88.00" height="72.00" rx="8.00" fill="#3b9dbb" opacity="0.64"/><rect x="996.00" y="150.00" width="88.00" height="72.00" rx="8.00" fill="#6166c7" opacity="0.52"/><rect x="96.00" y="234.00" width="88.00" height="72.00" rx="8.00" fill="#8f73be" opacity="0.78"/><rect x="196.00" y="234.00" width="88.00" height="72.00" rx="8.00" fill="#3b9dbb" opacity="0.57"/><rect x="296.00" y="234.00" width="88.00" height="72.00" rx="8.00" fill="#6166c7" opacity="0.55"/><rect x="396.00" y="234.00" width="88.00" height="72.00" rx="8.00" fill="#8f73be" opacity="0.49"/><rect x="496.00" y="234.00" width="88.00" height="72.00" rx="8.00" fill="#3b9dbb" opacity="0.76"/><rect x="596.00" y="234.00" width="88.00" height="72.00" rx="8.00" fill="#6166c7" opacity="0.53"/><rect x="696.00" y="234.00" width="88.00" height="72.00" rx="8.00" fill="#8f73be" opacity="0.46"/><rect x="796.00" y="234.00" width="88.00" height="72.00" rx="8.00" fill="#3b9dbb" opacity="0.71"/><rect x="896.00" y="234.00" width="88.00" height="72.00" rx="8.00" fill="#6166c7" opacity="0.73"/><rect x="996.00" y="234.00" width="88.00" height="72.00" rx="8.00" fill="#8f73be" opacity="0.38"/><rect x="96.00" y="318.00" width="88.00" height="72.00" rx="8.00" fill="#3b9dbb" opacity="0.58"/><rect x="196.00" y="318.00" width="88.00" height="72.00" rx="8.00" fill="#6166c7" opacity="0.50"/><rect x="296.00" y="318.00" width="88.00" height="72.00" rx="8.00" fill="#8f73be" opacity="0.44"/><rect x="396.00" y="318.00" width="88.00" height="72.00" rx="8.00" fill="#3b9dbb" opacity="0.63"/><rect x="496.00" y="318.00" width="88.00" height="72.00" rx="8.00" fill="#6166c7" opacity="0.76"/><rect x="596.00" y="318.00" width="88.00" height="72.00" rx="8.00" fill="#8f73be" opacity="0.86"/><rect x="696.00" y="318.00" width="88.00" height="72.00" rx="8.00" fill="#3b9dbb" opacity="0.87"/><rect x="796.00" y="318.00" width="88.00" height="72.00" rx="8.00" fill="#6166c7" opacity="0.48"/><rect x="896.00" y="318.00" width="88.00" height="72.00" rx="8.00" fill="#8f73be" opacity="0.87"/><rect x="996.00" y="318.00" width="88.00" height="72.00" rx="8.00" fill="#3b9dbb" opacity="0.89"/><rect x="96.00" y="402.00" width="88.00" height="72.00" rx="8.00" fill="#6166c7" opacity="0.86"/><rect x="196.00" y="402.00" width="88.00" height="72.00" rx="8.00" fill="#8f73be" opacity="0.86"/><rect x="296.00" y="402.00" width="88.00" height="72.00" rx="8.00" fill="#3b9dbb" opacity="0.44"/><rect x="396.00" y="402.00" width="88.00" height="72.00" rx="8.00" fill="#6166c7" opacity="0.75"/><rect x="496.00" y="402.00" width="88.00" height="72.00" rx="8.00" fill="#8f73be" opacity="0.88"/><rect x="596.00" y="402.00" width="88.00" height="72.00" rx="8.00" fill="#3b9dbb" opacity="0.93"/><rect x="696.00" y="402.00" width="88.00" height="72.00" rx="8.00" fill="#6166c7" opacity="0.80"/><rect x="796.00" y="402.00" width="88.00" height="72.00" rx="8.00" fill="#8f73be" opacity="0.74"/><rect x="896.00" y="402.00" width="88.00" height="72.00" rx="8.00" fill="#3b9dbb" opacity="0.47"/><rect x="996.00" y="402.00" width="88.00" height="72.00" rx="8.00" fill="#6166c7" opacity="0.71"/><rect x="96.00" y="486.00" width="88.00" height="72.00" rx="8.00" fill="#8f73be" opacity="0.49"/><rect x="196.00" y="486.00" width="88.00" height="72.00" rx="8.00" fill="#3b9dbb" opacity="0.35"/><rect x="296.00" y="486.00" width="88.00" height="72.00" rx="8.00" fill="#6166c7" opacity="0.41"/><rect x="396.00" y="486.00" width="88.00" height="72.00" rx="8.00" fill="#8f73be" opacity="0.42"/><rect x="496.00" y="486.00" width="88.00" height="72.00" rx="8.00" fill="#3b9dbb" opacity="0.89"/><rect x="596.00" y="486.00" width="88.00" height="72.00" rx="8.00" fill="#6166c7" opacity="0.61"/><rect x="696.00" y="486.00" width="88.00" height="72.00" rx="8.00" fill="#8f73be" opacity="0.48"/><rect x="796.00" y="486.00" width="88.00" height="72.00" rx="8.00" fill="#3b9dbb" opacity="0.49"/><rect x="896.00" y="486.00" width="88.00" height="72.00" rx="8.00" fill="#6166c7" opacity="0.39"/><rect x="996.00" y="486.00" width="88.00" height="72.00" rx="8.00" fill="#8f73be" opacity="0.73"/><g><rect x="96.00" y="150.00" width="88.00" height="72.00" rx="8.00" fill="#3b9dbb" opacity="0.80"/><animate attributeName="opacity" values="0.25;1.0;0.25" dur="6.933333333333334s" begin="1.28s" repeatCount="indefinite" /></g><g><rect x="196.00" y="150.00" width="88.00" height="72.00" rx="8.00" fill="#3b9dbb" opacity="0.80"/><animate attributeName="opacity" values="0.25;1.0;0.25" dur="6.933333333333334s" begin="1.6s" repeatCount="indefinite" /></g><g><rect x="296.00" y="150.00" width="88.00" height="72.00" rx="8.00" fill="#3b9dbb" opacity="0.80"/><animate attributeName="opacity" values="0.25;1.0;0.25" dur="6.933333333333334s" begin="1.92s" repeatCount="indefinite" /></g><g><rect x="396.00" y="150.00" width="88.00" height="72.00" rx="8.00" fill="#3b9dbb" opacity="0.80"/><animate attributeName="opacity" values="0.25;1.0;0.25" dur="6.933333333333334s" begin="2.24s" repeatCount="indefinite" /></g><g><rect x="496.00" y="150.00" width="88.00" height="72.00" rx="8.00" fill="#3b9dbb" opacity="0.80"/><animate attributeName="opacity" values="0.25;1.0;0.25" dur="6.933333333333334s" begin="2.56s" repeatCount="indefinite" /></g><g><rect x="596.00" y="150.00" width="88.00" height="72.00" rx="8.00" fill="#3b9dbb" opacity="0.80"/><animate attributeName="opacity" values="0.25;1.0;0.25" dur="6.933333333333334s" begin="2.88s" repeatCount="indefinite" /></g><g><rect x="696.00" y="150.00" width="88.00" height="72.00" rx="8.00" fill="#3b9dbb" opacity="0.80"/><animate attributeName="opacity" values="0.25;1.0;0.25" dur="6.933333333333334s" begin="3.2s" repeatCount="indefinite" /></g><g><rect x="796.00" y="150.00" width="88.00" height="72.00" rx="8.00" fill="#3b9dbb" opacity="0.80"/><animate attributeName="opacity" values="0.25;1.0;0.25" dur="6.933333333333334s" begin="3.5200000000000005s" repeatCount="indefinite" /></g><g><rect x="896.00" y="150.00" width="88.00" height="72.00" rx="8.00" fill="#3b9dbb" opacity="0.80"/><animate attributeName="opacity" values="0.25;1.0;0.25" dur="6.933333333333334s" begin="3.84s" repeatCount="indefinite" /></g><g><rect x="996.00" y="150.00" width="88.00" height="72.00" rx="8.00" fill="#3b9dbb" opacity="0.80"/><animate attributeName="opacity" values="0.25;1.0;0.25" dur="6.933333333333334s" begin="4.16s" repeatCount="indefinite" /></g>
</svg>